<mxfile host="app.diagrams.net" modified="2022-06-29T08:17:50.546Z" agent="5.0 (Macintosh; Intel Mac OS X 10_15_7) AppleWebKit/537.36 (KHTML, like Gecko) Chrome/103.0.0.0 Safari/537.36" etag="0RQLrVFTacndD4v0cxZG" version="20.0.3" type="github" pages="2">
  <diagram id="VboPljYoyyXK83kd2tXr" name="Page-1">
    <mxGraphModel dx="1018" dy="658" grid="1" gridSize="5" guides="1" tooltips="1" connect="1" arrows="1" fold="1" page="1" pageScale="1" pageWidth="1169" pageHeight="1654" math="0" shadow="0">
      <root>
        <mxCell id="0" />
        <mxCell id="1" parent="0" />
        <mxCell id="IgUmUMhMeKIJcgLFIGO4-26" value="" style="rounded=1;whiteSpace=wrap;html=1;fontFamily=Times New Roman;fontSize=17;fillColor=none;" vertex="1" parent="1">
          <mxGeometry x="200" y="70" width="855" height="40" as="geometry" />
        </mxCell>
        <mxCell id="8BELOAltnGTCO5mktgzC-1" value="&lt;font size=&quot;1&quot; face=&quot;Times New Roman&quot;&gt;&lt;b style=&quot;font-size: 17px;&quot;&gt;CEO-Sandy&lt;/b&gt;&lt;/font&gt;" style="rounded=1;whiteSpace=wrap;html=1;" vertex="1" parent="1">
          <mxGeometry x="370" y="70" width="120" height="40" as="geometry" />
        </mxCell>
        <mxCell id="8BELOAltnGTCO5mktgzC-2" value="&lt;font size=&quot;1&quot; face=&quot;Times New Roman&quot;&gt;&lt;b style=&quot;font-size: 17px;&quot;&gt;CTO-Haichen&lt;/b&gt;&lt;/font&gt;" style="rounded=1;whiteSpace=wrap;html=1;" vertex="1" parent="1">
          <mxGeometry x="675" y="70" width="120" height="40" as="geometry" />
        </mxCell>
        <mxCell id="8BELOAltnGTCO5mktgzC-3" value="&lt;font size=&quot;1&quot; face=&quot;Times New Roman&quot;&gt;&lt;b style=&quot;font-size: 17px;&quot;&gt;CRO-YeZhang&lt;/b&gt;&lt;/font&gt;" style="rounded=1;whiteSpace=wrap;html=1;" vertex="1" parent="1">
          <mxGeometry x="935" y="70" width="120" height="40" as="geometry" />
        </mxCell>
        <mxCell id="8BELOAltnGTCO5mktgzC-5" value="&lt;font face=&quot;Times New Roman&quot;&gt;&lt;span style=&quot;font-size: 17px;&quot;&gt;&lt;b&gt;Patricia&lt;/b&gt;&lt;/span&gt;&lt;/font&gt;" style="rounded=1;whiteSpace=wrap;html=1;" vertex="1" parent="1">
          <mxGeometry x="160" y="290" width="120" height="40" as="geometry" />
        </mxCell>
        <mxCell id="8BELOAltnGTCO5mktgzC-6" value="&lt;font face=&quot;Times New Roman&quot;&gt;&lt;span style=&quot;font-size: 17px;&quot;&gt;&lt;b&gt;Steven&lt;/b&gt;&lt;/span&gt;&lt;/font&gt;" style="rounded=1;whiteSpace=wrap;html=1;" vertex="1" parent="1">
          <mxGeometry x="612.5" y="290" width="245" height="40" as="geometry" />
        </mxCell>
        <mxCell id="IgUmUMhMeKIJcgLFIGO4-1" value="" style="endArrow=none;html=1;rounded=0;fontFamily=Times New Roman;fontSize=17;entryX=0.5;entryY=1;entryDx=0;entryDy=0;exitX=0.966;exitY=0.029;exitDx=0;exitDy=0;exitPerimeter=0;" edge="1" parent="1" source="8BELOAltnGTCO5mktgzC-5" target="8BELOAltnGTCO5mktgzC-1">
          <mxGeometry width="50" height="50" relative="1" as="geometry">
            <mxPoint x="555" y="310" as="sourcePoint" />
            <mxPoint x="605" y="260" as="targetPoint" />
          </mxGeometry>
        </mxCell>
        <mxCell id="IgUmUMhMeKIJcgLFIGO4-2" value="" style="endArrow=none;html=1;rounded=0;fontFamily=Times New Roman;fontSize=17;entryX=0.5;entryY=1;entryDx=0;entryDy=0;" edge="1" parent="1" target="8BELOAltnGTCO5mktgzC-1">
          <mxGeometry width="50" height="50" relative="1" as="geometry">
            <mxPoint x="615" y="290" as="sourcePoint" />
            <mxPoint x="335" y="110" as="targetPoint" />
          </mxGeometry>
        </mxCell>
        <mxCell id="IgUmUMhMeKIJcgLFIGO4-3" value="&lt;font face=&quot;Times New Roman&quot;&gt;&lt;span style=&quot;font-size: 17px;&quot;&gt;Chief of staff&lt;/span&gt;&lt;/font&gt;" style="rounded=1;whiteSpace=wrap;html=1;" vertex="1" parent="1">
          <mxGeometry x="80" y="395" width="280" height="40" as="geometry" />
        </mxCell>
        <mxCell id="IgUmUMhMeKIJcgLFIGO4-4" value="&lt;font face=&quot;Times New Roman&quot;&gt;&lt;span style=&quot;font-size: 17px;&quot;&gt;BD+Partnerships&lt;/span&gt;&lt;br&gt;&lt;/font&gt;" style="rounded=1;whiteSpace=wrap;html=1;" vertex="1" parent="1">
          <mxGeometry x="485" y="400" width="240" height="40" as="geometry" />
        </mxCell>
        <mxCell id="IgUmUMhMeKIJcgLFIGO4-5" value="&lt;font face=&quot;Times New Roman&quot;&gt;&lt;span style=&quot;font-size: 17px;&quot;&gt;Community Team&lt;/span&gt;&lt;/font&gt;" style="rounded=1;whiteSpace=wrap;html=1;" vertex="1" parent="1">
          <mxGeometry x="765" y="400" width="270" height="40" as="geometry" />
        </mxCell>
        <mxCell id="IgUmUMhMeKIJcgLFIGO4-7" value="&lt;font face=&quot;Times New Roman&quot;&gt;&lt;span style=&quot;font-size: 17px;&quot;&gt;Tech Integration&amp;nbsp;&lt;/span&gt;&lt;/font&gt;" style="rounded=1;whiteSpace=wrap;html=1;" vertex="1" parent="1">
          <mxGeometry x="630" y="150" width="85" height="70" as="geometry" />
        </mxCell>
        <mxCell id="IgUmUMhMeKIJcgLFIGO4-8" value="&lt;font face=&quot;Times New Roman&quot;&gt;&lt;span style=&quot;font-size: 17px;&quot;&gt;Content+Education+Research&lt;/span&gt;&lt;/font&gt;" style="rounded=1;whiteSpace=wrap;html=1;" vertex="1" parent="1">
          <mxGeometry x="882.5" y="290" width="225" height="40" as="geometry" />
        </mxCell>
        <mxCell id="IgUmUMhMeKIJcgLFIGO4-14" value="" style="endArrow=none;html=1;rounded=0;fontFamily=Times New Roman;fontSize=17;entryX=0.5;entryY=1;entryDx=0;entryDy=0;exitX=0.5;exitY=0;exitDx=0;exitDy=0;" edge="1" parent="1" source="IgUmUMhMeKIJcgLFIGO4-3" target="8BELOAltnGTCO5mktgzC-5">
          <mxGeometry width="50" height="50" relative="1" as="geometry">
            <mxPoint x="505" y="280" as="sourcePoint" />
            <mxPoint x="555" y="230" as="targetPoint" />
          </mxGeometry>
        </mxCell>
        <mxCell id="IgUmUMhMeKIJcgLFIGO4-18" value="&lt;div style=&quot;&quot;&gt;&lt;font style=&quot;font-size: 16px;&quot;&gt;- &lt;/font&gt;&lt;font style=&quot;font-size: 12px;&quot;&gt;Funds/ Investor Relation&lt;/font&gt;&lt;font style=&quot;font-size: 16px;&quot;&gt;s&lt;/font&gt;&lt;/div&gt;&lt;div style=&quot;font-size: 12px;&quot;&gt;&lt;font style=&quot;font-size: 16px;&quot;&gt;-&lt;/font&gt;&lt;font style=&quot;font-size: 12px;&quot;&gt; Larger Corporate Partners&lt;/font&gt;&lt;font style=&quot;font-size: 12px;&quot;&gt;hips&lt;/font&gt;&lt;/div&gt;&lt;div style=&quot;&quot;&gt;&lt;font style=&quot;font-size: 16px;&quot;&gt;- &lt;/font&gt;&lt;font style=&quot;font-size: 12px;&quot;&gt;Large Dapps/ Governance&lt;/font&gt;&lt;/div&gt;" style="rounded=1;whiteSpace=wrap;html=1;fontFamily=Times New Roman;fontSize=17;" vertex="1" parent="1">
          <mxGeometry x="420" y="460" width="170" height="80" as="geometry" />
        </mxCell>
        <mxCell id="IgUmUMhMeKIJcgLFIGO4-20" value="" style="rounded=1;whiteSpace=wrap;html=1;fontFamily=Times New Roman;fontSize=17;" vertex="1" parent="1">
          <mxGeometry x="770" y="460" width="80" height="140" as="geometry" />
        </mxCell>
        <mxCell id="IgUmUMhMeKIJcgLFIGO4-21" value="" style="rounded=1;whiteSpace=wrap;html=1;fontFamily=Times New Roman;fontSize=17;" vertex="1" parent="1">
          <mxGeometry x="870" y="460" width="80" height="140" as="geometry" />
        </mxCell>
        <mxCell id="IgUmUMhMeKIJcgLFIGO4-22" value="" style="rounded=1;whiteSpace=wrap;html=1;fontFamily=Times New Roman;fontSize=17;" vertex="1" parent="1">
          <mxGeometry x="965" y="460" width="80" height="140" as="geometry" />
        </mxCell>
        <mxCell id="IgUmUMhMeKIJcgLFIGO4-24" value="&lt;font face=&quot;Times New Roman&quot;&gt;&lt;span style=&quot;font-size: 17px;&quot;&gt;Internal Ops&amp;nbsp;&lt;/span&gt;&lt;/font&gt;" style="rounded=1;whiteSpace=wrap;html=1;" vertex="1" parent="1">
          <mxGeometry x="755" y="150" width="85" height="70" as="geometry" />
        </mxCell>
        <mxCell id="IgUmUMhMeKIJcgLFIGO4-28" value="" style="endArrow=none;html=1;rounded=0;fontFamily=Times New Roman;fontSize=17;exitX=1;exitY=0.5;exitDx=0;exitDy=0;entryX=0;entryY=0.5;entryDx=0;entryDy=0;" edge="1" parent="1" source="8BELOAltnGTCO5mktgzC-6" target="IgUmUMhMeKIJcgLFIGO4-8">
          <mxGeometry width="50" height="50" relative="1" as="geometry">
            <mxPoint x="720" y="280" as="sourcePoint" />
            <mxPoint x="890" y="310" as="targetPoint" />
          </mxGeometry>
        </mxCell>
        <mxCell id="IgUmUMhMeKIJcgLFIGO4-30" value="" style="endArrow=none;html=1;rounded=0;fontFamily=Times New Roman;fontSize=17;exitX=0.5;exitY=0;exitDx=0;exitDy=0;entryX=0.5;entryY=1;entryDx=0;entryDy=0;" edge="1" parent="1" source="IgUmUMhMeKIJcgLFIGO4-7" target="8BELOAltnGTCO5mktgzC-2">
          <mxGeometry width="50" height="50" relative="1" as="geometry">
            <mxPoint x="720" y="280" as="sourcePoint" />
            <mxPoint x="770" y="230" as="targetPoint" />
          </mxGeometry>
        </mxCell>
        <mxCell id="IgUmUMhMeKIJcgLFIGO4-31" value="" style="endArrow=none;html=1;rounded=0;fontFamily=Times New Roman;fontSize=17;entryX=0.5;entryY=1;entryDx=0;entryDy=0;exitX=0.5;exitY=0;exitDx=0;exitDy=0;" edge="1" parent="1" source="IgUmUMhMeKIJcgLFIGO4-24" target="8BELOAltnGTCO5mktgzC-2">
          <mxGeometry width="50" height="50" relative="1" as="geometry">
            <mxPoint x="720" y="280" as="sourcePoint" />
            <mxPoint x="770" y="230" as="targetPoint" />
          </mxGeometry>
        </mxCell>
        <mxCell id="IgUmUMhMeKIJcgLFIGO4-32" value="" style="endArrow=none;html=1;rounded=0;fontFamily=Times New Roman;fontSize=17;exitX=0.5;exitY=0;exitDx=0;exitDy=0;" edge="1" parent="1" source="IgUmUMhMeKIJcgLFIGO4-8" target="8BELOAltnGTCO5mktgzC-3">
          <mxGeometry width="50" height="50" relative="1" as="geometry">
            <mxPoint x="994" y="280" as="sourcePoint" />
            <mxPoint x="770" y="230" as="targetPoint" />
          </mxGeometry>
        </mxCell>
        <mxCell id="IgUmUMhMeKIJcgLFIGO4-34" value="" style="endArrow=none;html=1;rounded=0;fontFamily=Times New Roman;fontSize=17;exitX=0.238;exitY=-0.004;exitDx=0;exitDy=0;exitPerimeter=0;" edge="1" parent="1" source="8BELOAltnGTCO5mktgzC-6">
          <mxGeometry width="50" height="50" relative="1" as="geometry">
            <mxPoint x="720" y="280" as="sourcePoint" />
            <mxPoint x="671" y="220" as="targetPoint" />
          </mxGeometry>
        </mxCell>
        <mxCell id="IgUmUMhMeKIJcgLFIGO4-35" value="" style="endArrow=none;html=1;rounded=0;fontFamily=Times New Roman;fontSize=17;exitX=0.238;exitY=-0.004;exitDx=0;exitDy=0;exitPerimeter=0;" edge="1" parent="1">
          <mxGeometry width="50" height="50" relative="1" as="geometry">
            <mxPoint x="795" y="289.84000000000015" as="sourcePoint" />
            <mxPoint x="795.19" y="220" as="targetPoint" />
          </mxGeometry>
        </mxCell>
        <mxCell id="IgUmUMhMeKIJcgLFIGO4-36" value="" style="endArrow=none;html=1;rounded=0;fontFamily=Times New Roman;fontSize=17;exitX=0.5;exitY=1;exitDx=0;exitDy=0;entryX=0.5;entryY=0;entryDx=0;entryDy=0;" edge="1" parent="1" source="8BELOAltnGTCO5mktgzC-6" target="IgUmUMhMeKIJcgLFIGO4-4">
          <mxGeometry width="50" height="50" relative="1" as="geometry">
            <mxPoint x="715" y="255" as="sourcePoint" />
            <mxPoint x="765" y="205" as="targetPoint" />
          </mxGeometry>
        </mxCell>
        <mxCell id="IgUmUMhMeKIJcgLFIGO4-37" value="" style="endArrow=none;html=1;rounded=0;fontFamily=Times New Roman;fontSize=17;entryX=0.5;entryY=1;entryDx=0;entryDy=0;exitX=0.5;exitY=0;exitDx=0;exitDy=0;" edge="1" parent="1" source="IgUmUMhMeKIJcgLFIGO4-5" target="8BELOAltnGTCO5mktgzC-6">
          <mxGeometry width="50" height="50" relative="1" as="geometry">
            <mxPoint x="715" y="255" as="sourcePoint" />
            <mxPoint x="765" y="205" as="targetPoint" />
          </mxGeometry>
        </mxCell>
        <mxCell id="IgUmUMhMeKIJcgLFIGO4-38" value="&lt;font face=&quot;Times New Roman&quot; style=&quot;font-size: 16px;&quot;&gt;Ops + Culture&lt;/font&gt;" style="rounded=1;whiteSpace=wrap;html=1;" vertex="1" parent="1">
          <mxGeometry x="85" y="465" width="115" height="40" as="geometry" />
        </mxCell>
        <mxCell id="IgUmUMhMeKIJcgLFIGO4-39" value="&lt;div style=&quot;&quot;&gt;&lt;font face=&quot;Times New Roman&quot; style=&quot;font-size: 12px;&quot;&gt;- Hiring + Welfare in Asia&lt;/font&gt;&lt;/div&gt;&lt;div style=&quot;&quot;&gt;&lt;font face=&quot;Times New Roman&quot; style=&quot;font-size: 12px;&quot;&gt;- Ops and Compliance&lt;/font&gt;&lt;/div&gt;" style="rounded=1;whiteSpace=wrap;html=1;verticalAlign=middle;align=left;" vertex="1" parent="1">
          <mxGeometry x="70.63" y="510" width="133.75" height="55" as="geometry" />
        </mxCell>
        <mxCell id="IgUmUMhMeKIJcgLFIGO4-41" value="&lt;h3&gt;&lt;span style=&quot;color: rgb(41, 33, 40); background-color: rgb(255, 255, 255);&quot;&gt;&lt;font style=&quot;font-size: 18px;&quot;&gt;Co-founder&lt;/font&gt;&lt;/span&gt;&lt;/h3&gt;" style="text;html=1;strokeColor=none;fillColor=none;align=center;verticalAlign=middle;whiteSpace=wrap;rounded=0;fontFamily=Times New Roman;fontSize=16;" vertex="1" parent="1">
          <mxGeometry x="190" y="75" width="130" height="30" as="geometry" />
        </mxCell>
        <mxCell id="IgUmUMhMeKIJcgLFIGO4-42" value="" style="endArrow=none;html=1;rounded=0;fontFamily=Times New Roman;fontSize=18;entryX=0.456;entryY=-0.018;entryDx=0;entryDy=0;entryPerimeter=0;" edge="1" parent="1">
          <mxGeometry width="50" height="50" relative="1" as="geometry">
            <mxPoint x="139" y="435" as="sourcePoint" />
            <mxPoint x="139.44000000000005" y="464.28" as="targetPoint" />
          </mxGeometry>
        </mxCell>
        <mxCell id="IgUmUMhMeKIJcgLFIGO4-43" value="&lt;font face=&quot;Times New Roman&quot; style=&quot;font-size: 16px;&quot;&gt;Partnerships&lt;/font&gt;" style="rounded=1;whiteSpace=wrap;html=1;" vertex="1" parent="1">
          <mxGeometry x="240" y="465" width="115" height="40" as="geometry" />
        </mxCell>
        <mxCell id="IgUmUMhMeKIJcgLFIGO4-44" value="" style="endArrow=none;html=1;rounded=0;fontFamily=Times New Roman;fontSize=18;entryX=0.456;entryY=-0.018;entryDx=0;entryDy=0;entryPerimeter=0;" edge="1" parent="1" target="IgUmUMhMeKIJcgLFIGO4-43">
          <mxGeometry width="50" height="50" relative="1" as="geometry">
            <mxPoint x="292" y="435" as="sourcePoint" />
            <mxPoint x="450" y="375" as="targetPoint" />
          </mxGeometry>
        </mxCell>
        <mxCell id="IgUmUMhMeKIJcgLFIGO4-45" value="&lt;div style=&quot;font-size: 11px;&quot;&gt;&lt;div&gt;&lt;font face=&quot;Times New Roman&quot;&gt;- Web 2 partnerships in Asia&lt;/font&gt;&lt;/div&gt;&lt;div&gt;&lt;font face=&quot;Times New Roman&quot;&gt;- Fund Raising in Asia&lt;/font&gt;&lt;/div&gt;&lt;/div&gt;" style="rounded=1;whiteSpace=wrap;html=1;verticalAlign=middle;align=left;" vertex="1" parent="1">
          <mxGeometry x="230" y="510" width="140" height="55" as="geometry" />
        </mxCell>
      </root>
    </mxGraphModel>
  </diagram>
  <diagram id="Frk7JOEavVjtALirF4yj" name="Page-2">
    <mxGraphModel dx="1018" dy="658" grid="1" gridSize="10" guides="1" tooltips="1" connect="1" arrows="1" fold="1" page="1" pageScale="1" pageWidth="827" pageHeight="1169" math="0" shadow="0">
      <root>
        <mxCell id="0" />
        <mxCell id="1" parent="0" />
      </root>
    </mxGraphModel>
  </diagram>
</mxfile>
